<svg xmlns="http://www.w3.org/2000/svg" width="32" height="32">
<path d="M16,4c1.1,0,2,0.9,2,2s-0.9,2-2,2c-1.1,0-2-0.9-2-2S14.9,4,16,4 M16,2c-2.2,0-4,1.8-4,4s1.8,4,4,4s4-1.8,4-4S18.2,2,16,2
	L16,2z"/>
<rect x="6.5" y="5" width="7.5" height="2"/>
<polygon points="14,5 6.5,5 6.5,7 14,7 14,5"/>
<rect x="18" y="5" width="7.5" height="2"/>
<polygon points="25.5,5 18,5 18,7 25.5,7 25.5,5"/>
<path d="M6.8,5H6.2L0,23h13L6.8,5z M6.5,10.2L10.2,21H2.8L6.5,10.2z"/>
<path d="M25.8,5h-0.7L19,23h13L25.8,5z M25.5,10.2L29.2,21h-7.4L25.5,10.2z"/>
<path d="M13,23h-2c0,0.2,0,0.3,0,0.5C11,26,9,28,6.5,28S2,26,2,23.5c0-0.2,0-0.3,0-0.5H0c0,0.2,0,0.3,0,0.5C0,27.1,2.9,30,6.5,30
	s6.5-2.9,6.5-6.5C13,23.3,13,23.2,13,23z"/>
<path d="M32,23h-2c0,0.2,0,0.3,0,0.5c0,2.5-2,4.5-4.5,4.5S21,26,21,23.5c0-0.2,0-0.3,0-0.5h-2c0,0.2,0,0.3,0,0.5
	c0,3.6,2.9,6.5,6.5,6.5s6.5-2.9,6.5-6.5C32,23.3,32,23.2,32,23z"/>
</svg>
